<svg fill='#fff' id="Layer 1" data-name="Layer 1" xmlns="http://www.w3.org/2000/svg" viewBox="0 0 300 300"><line fill='#fff' class="cls-1" x1="300.2" y1="-0.2" x2="0.2" y2="-0.2"></line><line fill='#fff' class="cls-1" x1="300.2" y1="300.2" x2="0.2" y2="300.2"></line><path fill='#fff' class="cls-2" d="M220.38,238.25H129.59c-15.88,0-29.61-12.2-30.32-28.09,0-.27,0-.58,0-.94a28.79,28.79,0,0,1,1.24-8.81v0c0-.1.05-.19.09-.33A42.7,42.7,0,0,1,108.3,185a48.76,48.76,0,0,1,17-13.34,61.24,61.24,0,0,1,15.28-5.34,86.8,86.8,0,0,1,10.87-1.65c4.53-.46,8.26-.59,10.5-.64v0c10.87.07,18.45.17,20.42.32a24.46,24.46,0,0,1,4.4.74,23.28,23.28,0,0,1,3.7,1.37,118.74,118.74,0,0,1,13.34,7.8c.39.27.8.52,1.22.78a29.42,29.42,0,1,0,0-50.1c-.42.26-.83.51-1.22.78a118.74,118.74,0,0,1-13.34,7.8,23.28,23.28,0,0,1-3.7,1.37,24.46,24.46,0,0,1-4.4.74c-2,.15-9.55.25-20.42.32v0c-2.24,0-6-.18-10.5-.64a86.8,86.8,0,0,1-10.87-1.65,61.24,61.24,0,0,1-15.28-5.34,48.76,48.76,0,0,1-17-13.34,42.7,42.7,0,0,1-7.72-15.1,2.25,2.25,0,0,1-.09-.35,28.79,28.79,0,0,1-1.24-8.81c0-.32,0-.63,0-.94C100,74,113.71,61.75,129.59,61.75h90.79a29.42,29.42,0,1,0,0-58.83h-92c-.35,0-.9,0-1.58.06a31.61,31.61,0,0,0-6.27,1.07c-.84.24-1.66.51-2.43.79s-1.49.58-2.17.9a29.47,29.47,0,0,0-7.58,5.07A33,33,0,0,0,99.1,30.1c-.06.57-.08,1.12-.08,1.12,0,.45,0,.82,0,1.11V35.8c-1.75,14.59-14.55,25.6-29.4,26h0c-.25,0-.51,0-.74,0a29.41,29.41,0,0,0,.74,58.81h0a29.42,29.42,0,1,1,0,58.84h0a29.41,29.41,0,0,0-.74,58.81c.23,0,.49,0,.74,0h0c14.85.35,27.65,11.36,29.4,25.95v3.47c0,.29,0,.66,0,1.11,0,0,0,.55.08,1.12a33,33,0,0,0,9.28,19.29,29.47,29.47,0,0,0,7.58,5.07c.68.32,1.41.61,2.17.9s1.59.57,2.43.81a31.09,31.09,0,0,0,6.27,1c.68.06,1.23.06,1.58.06h92a29.42,29.42,0,1,0,0-58.83Z"></path></svg>